<svg width="193" height="41" viewBox="0 0 193 41" fill="none" xmlns="http://www.w3.org/2000/svg">
<g filter="url(#filter0_d_1_62)">
<path d="M13.97 0.589999L4.07 0.544997V31.955L13.97 32C22.16 32 28.775 25.025 28.775 16.34C28.775 7.61 22.16 0.589999 13.97 0.589999ZM13.745 26.105H9.875V6.665L13.745 6.62C18.785 6.62 22.88 10.985 22.88 16.34C22.88 21.695 18.785 26.105 13.745 26.105ZM49.9827 24.125C50.1177 23.495 50.1627 22.82 50.1627 22.145C50.1627 16.52 45.7527 11.93 40.3077 11.93C34.9077 11.93 30.4977 16.52 30.4977 22.145C30.4977 27.815 34.9077 32.405 40.3077 32.405C43.0077 32.405 45.4827 31.28 47.2377 29.435C47.8227 28.85 48.3627 28.175 48.7677 27.455V27.41L43.4577 25.43H43.4127C42.6027 26.24 41.5227 26.78 40.3077 26.78C38.5527 26.78 37.0227 25.655 36.3027 24.125H36.3477C36.3477 24.125 49.5777 24.125 49.9827 24.125ZM36.3027 20.165C36.9777 18.59 38.5077 17.42 40.3077 17.42C42.0627 17.42 43.5477 18.59 44.2677 20.12L36.3027 20.165ZM57.928 22.235C57.928 19.805 59.773 17.735 62.068 17.735C64.318 17.735 66.163 19.805 66.163 22.235V32H71.383V22.235C71.383 16.79 67.198 12.38 62.068 12.38C60.583 12.38 59.008 12.875 57.928 13.865C57.928 13.505 57.928 12.29 57.928 12.29H52.798V32H57.928V22.235ZM85.6177 26.87H81.1627C80.3977 26.87 79.8127 26.285 79.8127 25.565V17.465H85.6177V12.425H79.8127L79.7677 6.845H74.5477C74.5477 6.89 74.5477 25.655 74.5477 26.465C74.5477 29.525 77.1127 32.045 80.3077 32.045L85.6177 32V26.87ZM88.6134 32.045H93.8784V12.335H88.6134V32.045ZM91.2234 10.13C92.7984 10.13 94.1034 8.825 94.1034 7.16C94.1034 5.54 92.7984 4.19 91.2234 4.19C89.6484 4.19 88.3884 5.54 88.3884 7.16C88.3884 8.825 89.6484 10.13 91.2234 10.13ZM108.828 20.75C108.558 20.66 103.833 19.085 103.698 18.95C101.943 17.87 103.383 16.385 105.408 16.385C106.398 16.385 107.793 16.88 107.838 17.87H113.868C113.868 16.205 112.923 14.63 111.258 13.505C108.153 11.255 102.618 11.255 99.5132 13.505C96.6332 15.395 96.0032 18.815 98.3882 21.29C99.2882 22.235 100.503 22.955 101.943 23.405C101.988 23.405 106.398 24.935 106.443 24.935C108.873 25.7 107.883 27.725 105.408 27.77C103.923 27.77 102.933 27.005 102.933 26.285H96.9482C96.9482 27.95 97.8482 29.525 99.5132 30.65C102.618 32.9 108.153 32.9 111.258 30.65C114.138 28.76 114.768 25.34 112.383 22.865C111.528 21.965 110.268 21.245 108.828 20.75ZM127.717 26.87H123.262C122.497 26.87 121.912 26.285 121.912 25.565V17.465H127.717V12.425H121.912L121.867 6.845H116.647C116.647 6.89 116.647 25.655 116.647 26.465C116.647 29.525 119.212 32.045 122.407 32.045L127.717 32V26.87Z" fill="#3F3F3F"/>
<path d="M145.788 0.544997H137.373L128.958 32H134.943L137.058 24.17H146.193L148.353 32H154.338L145.788 0.544997ZM138.543 18.68L141.648 6.845L144.708 18.68H138.543ZM165.472 12.29C163.987 12.29 162.502 12.785 161.287 13.82C161.287 13.46 161.287 12.245 161.287 12.245H156.157V32H161.287V22.19C161.287 19.805 163.132 17.735 165.427 17.735C167.407 17.735 169.027 19.265 169.432 21.2C169.522 21.515 169.567 21.875 169.567 22.19V32C169.567 32 172.942 32 174.742 32C174.742 27.635 174.742 22.055 174.742 22.055C174.742 21.65 174.787 21.245 174.877 20.885C175.417 19.085 176.992 17.645 178.837 17.645C181.132 17.645 182.977 19.715 182.977 22.145V32H188.197V22.19C188.197 17.51 185.182 13.64 181.132 12.605C180.412 12.425 179.692 12.335 178.927 12.335C176.272 12.335 173.842 13.505 172.177 15.35C171.412 14.54 170.557 13.865 169.612 13.37C168.352 12.695 166.957 12.29 165.472 12.29Z" fill="#E21F4D"/>
</g>
<defs>
<filter id="filter0_d_1_62" x="0.0699997" y="0.544922" width="192.127" height="40.355" filterUnits="userSpaceOnUse" color-interpolation-filters="sRGB">
<feFlood flood-opacity="0" result="BackgroundImageFix"/>
<feColorMatrix in="SourceAlpha" type="matrix" values="0 0 0 0 0 0 0 0 0 0 0 0 0 0 0 0 0 0 127 0" result="hardAlpha"/>
<feOffset dy="4"/>
<feGaussianBlur stdDeviation="2"/>
<feComposite in2="hardAlpha" operator="out"/>
<feColorMatrix type="matrix" values="0 0 0 0 0 0 0 0 0 0 0 0 0 0 0 0 0 0 0.25 0"/>
<feBlend mode="normal" in2="BackgroundImageFix" result="effect1_dropShadow_1_62"/>
<feBlend mode="normal" in="SourceGraphic" in2="effect1_dropShadow_1_62" result="shape"/>
</filter>
</defs>
</svg>
